<svg xmlns="http://www.w3.org/2000/svg" xmlns:xlink="http://www.w3.org/1999/xlink" version="1.1" width="1000" height="1000" viewBox="0 0 1000 1000" xml:space="preserve">
<desc>Created with Fabric.js 3.5.0</desc>
<defs>
</defs>
<rect x="0" y="0" width="100%" height="100%" fill="rgba(255,255,255,0)"/>
<g transform="matrix(14.3737 0 0 14.3737 499.9992 499.9992)" id="397775">
<g style="">
		<g transform="matrix(1 0 0 1 0 0)" id="rect3588">
<radialGradient id="SVGID_895" gradientUnits="userSpaceOnUse" gradientTransform="matrix(1 0 0 1 -114.2857 -172.3621)" cx="114.28571" cy="172.36217" r="34.785713" fx="114.28571" fy="172.36217">
<stop offset="0%" style="stop-color:rgb(252,15,12);stop-opacity: 1"/>
<stop offset="64.285713%" style="stop-color:rgb(181,10,9);stop-opacity: 1"/>
<stop offset="100%" style="stop-color:rgb(108,12,12);stop-opacity: 1"/>
</radialGradient>
<radialGradient id="SVGID_896" gradientUnits="userSpaceOnUse" gradientTransform="matrix(1 0 0 1 -114.2857 -172.3621)" cx="114.28571" cy="172.36217" r="34.285713" fx="114.28571" fy="172.36217">
<stop offset="0%" style="stop-color:rgb(252,15,12);stop-opacity: 1"/>
<stop offset="64.285713%" style="stop-color:rgb(181,10,9);stop-opacity: 1"/>
<stop offset="100%" style="stop-color:rgb(108,12,12);stop-opacity: 1"/>
</radialGradient>
<rect style="stroke: url(#SVGID_896); stroke-width: 1; stroke-dasharray: none; stroke-linecap: round; stroke-dashoffset: 0; stroke-linejoin: round; stroke-miterlimit: 4; is-custom-font: none; font-file-url: none; fill: url(#SVGID_895); fill-rule: nonzero; opacity: 1;" x="-34.2857" y="-34.2857" rx="9.0274715" ry="9.0274715" width="68.5714" height="68.5714"/>
</g>
		<g transform="matrix(1 0 0 1 -20.8607 -20.5732)" id="path3594">
<radialGradient id="SVGID_897" gradientUnits="userSpaceOnUse" gradientTransform="matrix(1.4124 -0.8006 0.7274 1.2831 -148.5919 20.6439)" cx="82.042511" cy="158.51317" r="6.3965464" fx="82.042511" fy="158.51317">
<stop offset="0%" style="stop-color:rgb(255,255,255);stop-opacity: 1"/>
<stop offset="100%" style="stop-color:rgb(0,0,0);stop-opacity: 1"/>
</radialGradient>
<path style="stroke: none; stroke-width: 1; stroke-dasharray: none; stroke-linecap: round; stroke-dashoffset: 0; stroke-linejoin: round; stroke-miterlimit: 4; is-custom-font: none; font-file-url: none; fill: url(#SVGID_897); fill-rule: nonzero; opacity: 1;" transform=" translate(-81.2865, -156.1988)" d="M 87.683 156.19884 A 6.3965464 6.3965464 0 1 1 74.889907 156.19884 A 6.3965464 6.3965464 0 1 1 87.683 156.19884 z" stroke-linecap="round"/>
</g>
		<g transform="matrix(1 0 0 1 -20.8607 20.5731)" id="path3596">
<radialGradient id="SVGID_898" gradientUnits="userSpaceOnUse" gradientTransform="matrix(1.4124 -0.8006 0.7274 1.2831 -148.5919 20.6439)" cx="82.042511" cy="158.51317" r="6.3965464" fx="82.042511" fy="158.51317">
<stop offset="0%" style="stop-color:rgb(255,255,255);stop-opacity: 1"/>
<stop offset="100%" style="stop-color:rgb(0,0,0);stop-opacity: 1"/>
</radialGradient>
<path style="stroke: none; stroke-width: 1; stroke-dasharray: none; stroke-linecap: round; stroke-dashoffset: 0; stroke-linejoin: round; stroke-miterlimit: 4; is-custom-font: none; font-file-url: none; fill: url(#SVGID_898); fill-rule: nonzero; opacity: 1;" transform=" translate(-81.2865, -156.1988)" d="M 87.683 156.19884 A 6.3965464 6.3965464 0 1 1 74.889907 156.19884 A 6.3965464 6.3965464 0 1 1 87.683 156.19884 z" stroke-linecap="round"/>
</g>
		<g transform="matrix(1 0 0 1 -0.0001 -0.0001)" id="path3606">
<radialGradient id="SVGID_899" gradientUnits="userSpaceOnUse" gradientTransform="matrix(1.4124 -0.8006 0.7274 1.2831 -148.5919 20.6439)" cx="82.042511" cy="158.51317" r="6.3965464" fx="82.042511" fy="158.51317">
<stop offset="0%" style="stop-color:rgb(255,255,255);stop-opacity: 1"/>
<stop offset="100%" style="stop-color:rgb(0,0,0);stop-opacity: 1"/>
</radialGradient>
<path style="stroke: none; stroke-width: 1; stroke-dasharray: none; stroke-linecap: round; stroke-dashoffset: 0; stroke-linejoin: round; stroke-miterlimit: 4; is-custom-font: none; font-file-url: none; fill: url(#SVGID_899); fill-rule: nonzero; opacity: 1;" transform=" translate(-81.2865, -156.1988)" d="M 87.683 156.19884 A 6.3965464 6.3965464 0 1 1 74.889907 156.19884 A 6.3965464 6.3965464 0 1 1 87.683 156.19884 z" stroke-linecap="round"/>
</g>
		<g transform="matrix(1 0 0 1 20.8606 -20.5732)" id="path3610">
<radialGradient id="SVGID_900" gradientUnits="userSpaceOnUse" gradientTransform="matrix(1.4124 -0.8006 0.7274 1.2831 -148.5919 20.6439)" cx="82.042511" cy="158.51317" r="6.3965464" fx="82.042511" fy="158.51317">
<stop offset="0%" style="stop-color:rgb(255,255,255);stop-opacity: 1"/>
<stop offset="100%" style="stop-color:rgb(0,0,0);stop-opacity: 1"/>
</radialGradient>
<path style="stroke: none; stroke-width: 1; stroke-dasharray: none; stroke-linecap: round; stroke-dashoffset: 0; stroke-linejoin: round; stroke-miterlimit: 4; is-custom-font: none; font-file-url: none; fill: url(#SVGID_900); fill-rule: nonzero; opacity: 1;" transform=" translate(-81.2865, -156.1988)" d="M 87.683 156.19884 A 6.3965464 6.3965464 0 1 1 74.889907 156.19884 A 6.3965464 6.3965464 0 1 1 87.683 156.19884 z" stroke-linecap="round"/>
</g>
		<g transform="matrix(1 0 0 1 20.8606 20.5731)" id="path3612">
<radialGradient id="SVGID_901" gradientUnits="userSpaceOnUse" gradientTransform="matrix(1.4124 -0.8006 0.7274 1.2831 -148.5919 20.6439)" cx="82.042511" cy="158.51317" r="6.3965464" fx="82.042511" fy="158.51317">
<stop offset="0%" style="stop-color:rgb(255,255,255);stop-opacity: 1"/>
<stop offset="100%" style="stop-color:rgb(0,0,0);stop-opacity: 1"/>
</radialGradient>
<path style="stroke: none; stroke-width: 1; stroke-dasharray: none; stroke-linecap: round; stroke-dashoffset: 0; stroke-linejoin: round; stroke-miterlimit: 4; is-custom-font: none; font-file-url: none; fill: url(#SVGID_901); fill-rule: nonzero; opacity: 1;" transform=" translate(-81.2865, -156.1988)" d="M 87.683 156.19884 A 6.3965464 6.3965464 0 1 1 74.889907 156.19884 A 6.3965464 6.3965464 0 1 1 87.683 156.19884 z" stroke-linecap="round"/>
</g>
</g>
</g>
</svg>